<svg xmlns="http://www.w3.org/2000/svg" viewBox="0 0 260 400">
  <defs>
    <linearGradient id="pg" x1="0" y1="0" x2="0" y2="1">
      <stop offset="0" stop-color="#f4ead0"/><stop offset=".55" stop-color="#eddfba"/>
      <stop offset="1" stop-color="#e3d2a6"/>
    </linearGradient>
    <radialGradient id="glow" cx=".5" cy=".38" r=".75">
      <stop offset="0" stop-color="#fdf8ea" stop-opacity=".95"/>
      <stop offset="1" stop-color="#fdf8ea" stop-opacity="0"/>
    </radialGradient>
  </defs>
  <rect x="1.5" y="1.5" width="257" height="397" rx="12" fill="url(#pg)" stroke="#9a7d4d" stroke-width="3"/>
  <rect x="9" y="9" width="242" height="382" rx="7" fill="none" stroke="#b99a5f" stroke-width="1.4"/>
  <ellipse cx="130" cy="150" rx="115" ry="130" fill="url(#glow)"/>
  <g fill="#a98d58">
    <path d="M20 16 q8 6 16 2 q-6 8 -2 16 q-8 -6 -16 -2 q6 -8 2 -16" opacity=".8"/>
    <path d="M240 384 q-8 -6 -16 -2 q6 -8 2 -16 q8 6 16 2 q-6 8 -2 16" opacity=".8"/>
  </g><path d="M28 268 q60 -14 102 0 q52 12 102 0 l0 40 q-104 14 -204 0 z" fill="#d9c48d" opacity=".65"/>
    <path d="M40 258 q60 -60 84 -92 q20 -28 60 -44" fill="none" stroke="#b99a5f" stroke-width="8" stroke-linecap="round"/>
    <path d="M40 258 q60 -60 84 -92 q20 -28 60 -44" fill="none" stroke="#f7efdc" stroke-width="2.4" stroke-dasharray="8 9"/>
    <rect x="152" y="176" width="6" height="56" fill="#8a6a3f" stroke="#43301d" stroke-width="1.8"/>
    <path d="M158 180 h44 l10 8 l-10 8 h-44 z" fill="#f7efdc" stroke="#43301d" stroke-width="2"/>
    <rect x="66" y="196" width="52" height="36" rx="5" fill="#8a6a3f" stroke="#43301d" stroke-width="2.4"/>
    <path d="M80 196 v-8 q0 -6 12 -6 q12 0 12 6 v8" fill="none" stroke="#43301d" stroke-width="2.2"/>
    <line x1="180.7" y1="102.2" x2="165.1" y2="98.7" stroke="#c9a227" stroke-width="3.4" stroke-linecap="round"/><line x1="185.7" y1="91.8" x2="173.2" y2="81.8" stroke="#c9a227" stroke-width="3.4" stroke-linecap="round"/><line x1="194.7" y1="84.6" x2="187.8" y2="70.2" stroke="#c9a227" stroke-width="3.4" stroke-linecap="round"/><line x1="206.0" y1="82.0" x2="206.0" y2="66.0" stroke="#c9a227" stroke-width="3.4" stroke-linecap="round"/><line x1="217.3" y1="84.6" x2="224.2" y2="70.2" stroke="#c9a227" stroke-width="3.4" stroke-linecap="round"/><line x1="226.3" y1="91.8" x2="238.8" y2="81.8" stroke="#c9a227" stroke-width="3.4" stroke-linecap="round"/><line x1="231.3" y1="102.2" x2="246.9" y2="98.7" stroke="#c9a227" stroke-width="3.4" stroke-linecap="round"/><path d="M186 108 a20 20 0 0 1 40 0 z" fill="#c9a227" stroke="#43301d" stroke-width="2.4"/>
  <line x1="164" y1="108" x2="248" y2="108" stroke="#43301d" stroke-width="2.4"/>
  <rect x="22" y="334 " width="216" height="42" rx="6" fill="#f7efdc" stroke="#b99a5f" stroke-width="1.6"/>
  <path d="M22 355 h-9 l9 -12 M238 355 h9 l-9 -12" fill="none" stroke="#b99a5f" stroke-width="1.6"/>
  <text x="130" y="362" text-anchor="middle" font-family="Palatino Linotype, Georgia, serif" font-size="20" font-weight="700" letter-spacing="1.5" fill="#5d4a28">UTAZÁS</text></svg>